<mxfile host="app.diagrams.net" modified="2021-03-10T02:05:06.225Z" agent="5.0 (Windows)" etag="6yMY0E_qj3LcTjFI3HGp" version="14.4.5" type="github">
  <diagram id="xuYz15TEGx8QCA9YzJ0Q" name="Page-1">
    <mxGraphModel dx="1038" dy="575" grid="1" gridSize="10" guides="1" tooltips="1" connect="1" arrows="1" fold="1" page="1" pageScale="1" pageWidth="850" pageHeight="1100" math="0" shadow="0">
      <root>
        <mxCell id="0" />
        <mxCell id="1" parent="0" />
        <mxCell id="wU0fDPuK5FBfuHXm1-iG-5" value="" style="group" parent="1" vertex="1" connectable="0">
          <mxGeometry x="40" y="180" width="116.67" height="140" as="geometry" />
        </mxCell>
        <mxCell id="wU0fDPuK5FBfuHXm1-iG-2" value="" style="rounded=1;arcSize=10;dashed=0;fillColor=none;gradientColor=none;strokeWidth=2;" parent="wU0fDPuK5FBfuHXm1-iG-5" vertex="1">
          <mxGeometry y="23.333333333333332" width="116.67" height="116.66666666666667" as="geometry" />
        </mxCell>
        <mxCell id="wU0fDPuK5FBfuHXm1-iG-1" value="" style="pointerEvents=1;shadow=0;dashed=0;html=1;strokeColor=#6D1F00;fillColor=#a0522d;aspect=fixed;labelPosition=center;verticalLabelPosition=bottom;verticalAlign=top;align=center;outlineConnect=0;shape=mxgraph.vvd.vnf_m;fontColor=#ffffff;" parent="wU0fDPuK5FBfuHXm1-iG-5" vertex="1">
          <mxGeometry x="23.334000000000003" y="48.68888888888888" width="87.07222222222222" height="75.75555555555556" as="geometry" />
        </mxCell>
        <mxCell id="wU0fDPuK5FBfuHXm1-iG-4" value="" style="aspect=fixed;html=1;points=[];align=center;image;fontSize=12;image=img/lib/azure2/compute/Cloud_Services_Classic.svg;" parent="wU0fDPuK5FBfuHXm1-iG-5" vertex="1">
          <mxGeometry x="15.556000000000001" width="56" height="40.44444444444444" as="geometry" />
        </mxCell>
        <mxCell id="qVONZPWUTpEZc3J3JTJy-1" value="" style="group" vertex="1" connectable="0" parent="1">
          <mxGeometry x="330" y="330" width="116.67" height="140" as="geometry" />
        </mxCell>
        <mxCell id="qVONZPWUTpEZc3J3JTJy-2" value="" style="rounded=1;arcSize=10;dashed=0;fillColor=none;gradientColor=none;strokeWidth=2;" vertex="1" parent="qVONZPWUTpEZc3J3JTJy-1">
          <mxGeometry y="23.333333333333332" width="116.67" height="116.66666666666667" as="geometry" />
        </mxCell>
        <mxCell id="qVONZPWUTpEZc3J3JTJy-3" value="" style="pointerEvents=1;shadow=0;dashed=0;html=1;strokeColor=#3700CC;fillColor=#6a00ff;aspect=fixed;labelPosition=center;verticalLabelPosition=bottom;verticalAlign=top;align=center;outlineConnect=0;shape=mxgraph.vvd.vnf_m;fontColor=#ffffff;" vertex="1" parent="qVONZPWUTpEZc3J3JTJy-1">
          <mxGeometry x="23.334000000000003" y="48.68888888888888" width="87.07222222222222" height="75.75555555555556" as="geometry" />
        </mxCell>
        <mxCell id="qVONZPWUTpEZc3J3JTJy-4" value="" style="aspect=fixed;html=1;points=[];align=center;image;fontSize=12;image=img/lib/azure2/compute/Cloud_Services_Classic.svg;" vertex="1" parent="qVONZPWUTpEZc3J3JTJy-1">
          <mxGeometry x="15.556000000000001" width="56" height="40.44444444444444" as="geometry" />
        </mxCell>
        <mxCell id="qVONZPWUTpEZc3J3JTJy-5" value="" style="group" vertex="1" connectable="0" parent="1">
          <mxGeometry x="280" y="40" width="116.67" height="140" as="geometry" />
        </mxCell>
        <mxCell id="qVONZPWUTpEZc3J3JTJy-6" value="" style="rounded=1;arcSize=10;dashed=0;fillColor=none;gradientColor=none;strokeWidth=2;" vertex="1" parent="qVONZPWUTpEZc3J3JTJy-5">
          <mxGeometry y="23.333333333333332" width="116.67" height="116.66666666666667" as="geometry" />
        </mxCell>
        <mxCell id="qVONZPWUTpEZc3J3JTJy-7" value="" style="pointerEvents=1;shadow=0;dashed=0;html=1;strokeColor=#432D57;fillColor=#76608a;aspect=fixed;labelPosition=center;verticalLabelPosition=bottom;verticalAlign=top;align=center;outlineConnect=0;shape=mxgraph.vvd.vnf_m;fontColor=#ffffff;" vertex="1" parent="qVONZPWUTpEZc3J3JTJy-5">
          <mxGeometry x="23.334000000000003" y="48.68888888888888" width="87.07222222222222" height="75.75555555555556" as="geometry" />
        </mxCell>
        <mxCell id="qVONZPWUTpEZc3J3JTJy-8" value="" style="aspect=fixed;html=1;points=[];align=center;image;fontSize=12;image=img/lib/azure2/compute/Cloud_Services_Classic.svg;" vertex="1" parent="qVONZPWUTpEZc3J3JTJy-5">
          <mxGeometry x="15.556000000000001" width="56" height="40.44444444444444" as="geometry" />
        </mxCell>
        <mxCell id="qVONZPWUTpEZc3J3JTJy-10" value="" style="group" vertex="1" connectable="0" parent="1">
          <mxGeometry x="630" y="180" width="116.67" height="140" as="geometry" />
        </mxCell>
        <mxCell id="qVONZPWUTpEZc3J3JTJy-11" value="" style="rounded=1;arcSize=10;dashed=0;fillColor=none;gradientColor=none;strokeWidth=2;" vertex="1" parent="qVONZPWUTpEZc3J3JTJy-10">
          <mxGeometry y="23.333333333333332" width="116.67" height="116.66666666666667" as="geometry" />
        </mxCell>
        <mxCell id="qVONZPWUTpEZc3J3JTJy-12" value="" style="pointerEvents=1;shadow=0;dashed=0;html=1;strokeColor=#C73500;fillColor=#fa6800;aspect=fixed;labelPosition=center;verticalLabelPosition=bottom;verticalAlign=top;align=center;outlineConnect=0;shape=mxgraph.vvd.vnf_m;fontColor=#ffffff;" vertex="1" parent="qVONZPWUTpEZc3J3JTJy-10">
          <mxGeometry x="23.334000000000003" y="48.68888888888888" width="87.07222222222222" height="75.75555555555556" as="geometry" />
        </mxCell>
        <mxCell id="qVONZPWUTpEZc3J3JTJy-13" value="" style="aspect=fixed;html=1;points=[];align=center;image;fontSize=12;image=img/lib/azure2/compute/Cloud_Services_Classic.svg;" vertex="1" parent="qVONZPWUTpEZc3J3JTJy-10">
          <mxGeometry x="15.556000000000001" width="56" height="40.44444444444444" as="geometry" />
        </mxCell>
        <mxCell id="qVONZPWUTpEZc3J3JTJy-14" style="rounded=0;orthogonalLoop=1;jettySize=auto;html=1;entryX=0;entryY=0.5;entryDx=0;entryDy=0;startArrow=classic;startFill=1;strokeWidth=3;" edge="1" parent="1" source="wU0fDPuK5FBfuHXm1-iG-2" target="qVONZPWUTpEZc3J3JTJy-6">
          <mxGeometry relative="1" as="geometry">
            <Array as="points">
              <mxPoint x="170" y="230" />
            </Array>
          </mxGeometry>
        </mxCell>
        <mxCell id="qVONZPWUTpEZc3J3JTJy-15" style="edgeStyle=none;rounded=0;orthogonalLoop=1;jettySize=auto;html=1;exitX=1;exitY=0.75;exitDx=0;exitDy=0;entryX=0;entryY=0.5;entryDx=0;entryDy=0;startArrow=classic;startFill=1;strokeWidth=3;" edge="1" parent="1" source="wU0fDPuK5FBfuHXm1-iG-2" target="qVONZPWUTpEZc3J3JTJy-2">
          <mxGeometry relative="1" as="geometry" />
        </mxCell>
        <mxCell id="qVONZPWUTpEZc3J3JTJy-16" style="edgeStyle=none;rounded=0;orthogonalLoop=1;jettySize=auto;html=1;exitX=1;exitY=0.5;exitDx=0;exitDy=0;entryX=0;entryY=0.75;entryDx=0;entryDy=0;startArrow=classic;startFill=1;strokeWidth=3;" edge="1" parent="1" source="qVONZPWUTpEZc3J3JTJy-2" target="qVONZPWUTpEZc3J3JTJy-11">
          <mxGeometry relative="1" as="geometry" />
        </mxCell>
        <mxCell id="qVONZPWUTpEZc3J3JTJy-17" style="edgeStyle=none;rounded=0;orthogonalLoop=1;jettySize=auto;html=1;exitX=1;exitY=0.5;exitDx=0;exitDy=0;entryX=0;entryY=0.25;entryDx=0;entryDy=0;startArrow=classic;startFill=1;strokeWidth=3;" edge="1" parent="1" source="qVONZPWUTpEZc3J3JTJy-6" target="qVONZPWUTpEZc3J3JTJy-11">
          <mxGeometry relative="1" as="geometry" />
        </mxCell>
        <mxCell id="qVONZPWUTpEZc3J3JTJy-18" style="edgeStyle=none;rounded=0;orthogonalLoop=1;jettySize=auto;html=1;exitX=0.5;exitY=1;exitDx=0;exitDy=0;entryX=0.75;entryY=0;entryDx=0;entryDy=0;startArrow=classic;startFill=1;strokeWidth=3;" edge="1" parent="1" source="qVONZPWUTpEZc3J3JTJy-6" target="qVONZPWUTpEZc3J3JTJy-2">
          <mxGeometry relative="1" as="geometry" />
        </mxCell>
      </root>
    </mxGraphModel>
  </diagram>
</mxfile>
